<svg id="Layer_1" data-name="Layer 1" xmlns="http://www.w3.org/2000/svg" xmlns:xlink="http://www.w3.org/1999/xlink" viewBox="0 0 455.77 455.77"><defs><style>.cls-1,.cls-5,.cls-6{fill:none;}.cls-2{clip-path:url(#clip-path);}.cls-3{opacity:0.5;}.cls-4{clip-path:url(#clip-path-3);}.cls-5,.cls-6{stroke:#fff;stroke-width:1.92px;}.cls-5{stroke-linecap:round;stroke-linejoin:round;}.cls-6{stroke-miterlimit:10;}</style><clipPath id="clip-path" transform="translate(-57.65 -60.9)"><rect class="cls-1" x="55.75" y="59" width="459.57" height="459.57"/></clipPath><clipPath id="clip-path-3" transform="translate(-57.65 -60.9)"><rect class="cls-1" x="5.02" y="20.21" width="561.03" height="501.35"/></clipPath></defs><g class="cls-2"><g class="cls-2"><g class="cls-3"><g class="cls-4"><path class="cls-5" d="M116.46,326.21l-57,169.33m40.34,0,56.92-146.63M109,203.06v94.77c0,16.45,4.88,34,21.91,41.31l78.74,30.33L219.48,435m40.84,0-10.49-90.77-70.19-40.34V203.06c0-18.91-12.8-21.51-29.86-30.26-16.39-8.4-32.58-10.09-50.23,0A253.6,253.6,0,0,0,69.4,193c-6.9,5.75-10.79,15.28-10.79,24.26v66.51" transform="translate(-57.65 -60.9)"/><path class="cls-6" d="M210.69,102.2a40.34,40.34,0,1,1-40.34-40.34A40.34,40.34,0,0,1,210.69,102.2Z" transform="translate(-57.65 -60.9)"/><path class="cls-5" d="M199.81,515.71V465.28H310.75V364.42H411.61V263.57H512.46m-332-19.73,59.71,33" transform="translate(-57.65 -60.9)"/></g></g></g></g></svg>