<?xml version="1.0" encoding="utf-8"?>
<!-- Generator: Adobe Illustrator 16.0.0, SVG Export Plug-In . SVG Version: 6.00 Build 0)  -->
<!DOCTYPE svg PUBLIC "-//W3C//DTD SVG 1.1//EN" "http://www.w3.org/Graphics/SVG/1.1/DTD/svg11.dtd">
<svg version="1.1" id="Ebene_1" xmlns="http://www.w3.org/2000/svg" xmlns:xlink="http://www.w3.org/1999/xlink" x="0px" y="0px"
	 width="130px" height="81px" viewBox="0 0 130 81" enable-background="new 0 0 130 81" xml:space="preserve">
<polygon fill="#1076BC" points="69.914,21.076 80.188,33.887 80.188,43.318 84.656,43.318 84.656,33.887 94.889,21.076 
	89.889,21.076 82.468,31 75.077,21.076 "/>
<path fill="#1076BC" d="M102.734,25.344l-3.855,8.35h7.76L102.734,25.344z M100.596,20.868h4.076l11.314,22.255h-5.02l-2.933-6.342
	H97.549l-2.803,6.342h-4.919L100.596,20.868z"/>
<path fill="#1076BC" d="M58.736,40.287c-3.22,0-8.751-1.004-8.916-8.091h7.231c0,0-2.918-0.749-7.175-1.493
	c0.626-6.286,6.215-7.208,8.899-7.208c4.749,0,8.351,2.873,8.351,8.025C67.127,37.78,63.583,40.287,58.736,40.287 M71.698,32.426
	c0-7.721-5.38-11.95-12.725-11.95c-9.769,0-12.738,5.789-13.482,9.553c-1.556-0.198-3.202-0.403-4.897-0.542v-8.619h-4.325v8.359
	c-0.63-0.024-1.252-0.028-1.861-0.028c-3.456,0-6.951,0.303-10.082,0.719v-9.05h-4.297v9.714c-4.516,0.775-7.61,1.613-7.61,1.613
	h7.61v10.927h4.297V32.196h11.946v10.927h4.321V32.196h4.72c0.108,6.107,4.705,11.289,12.854,11.289
	C71.852,43.484,71.698,32.426,71.698,32.426"/>
<path fill="#727375" d="M18.008,63.807c0.044,0.889,0.576,1.146,1.376,1.146c0.568,0,1.159-0.218,1.159-0.729
	c0-0.652-1.037-0.769-2.089-1.074c-1.039-0.271-2.122-0.73-2.122-2.108c0-1.569,1.589-2.194,2.943-2.194
	c1.443,0,2.909,0.691,2.929,2.336h-1.892c0.01-0.638-0.605-0.839-1.182-0.839c-0.409,0-0.91,0.116-0.91,0.577
	c0,0.576,1.048,0.691,2.092,0.977c1.05,0.291,2.125,0.769,2.125,2.106c0,1.845-1.575,2.442-3.169,2.442
	c-1.665,0-3.161-0.764-3.163-2.637h1.903V63.807z"/>
<path fill="#727375" d="M30.223,63.26c0,2.135-0.979,3.18-3.169,3.18c-2.195,0-3.169-1.045-3.169-3.18v-4.261h1.901v4.367
	c0,0.946,0.344,1.437,1.268,1.437c0.922,0,1.268-0.488,1.268-1.437v-4.367h1.901V63.26z"/>
<path fill="#727375" d="M33.943,62.18h1.58c0.576,0,0.877-0.34,0.877-0.892c0-0.509-0.416-0.767-0.944-0.767h-1.513V62.18z
	 M32.062,58.997h3.692c1.274,0,2.535,0.577,2.535,2.036c0,0.807-0.364,1.535-1.137,1.844l0,0c0.786,0.217,1.013,1.04,1.073,1.73
	c0.006,0.344,0.048,1.381,0.294,1.654h-1.866c-0.157-0.253-0.208-0.966-0.208-1.162c-0.058-0.726-0.173-1.479-1.066-1.479h-1.436
	v2.641h-1.881V58.997z"/>
<path fill="#727375" d="M46.688,66.262h-1.232l-0.108-0.783c-0.49,0.707-1.354,0.963-2.038,0.963c-2.19,0-3.614-1.721-3.614-3.795
	c0-2.105,1.424-3.803,3.614-3.803c1.517,0,3.125,0.807,3.296,2.65h-1.888c-0.061-0.641-0.667-1.037-1.436-1.037
	c-1.226,0-1.698,1.105-1.698,2.189c0,1.045,0.473,2.156,1.698,2.156c0.942,0,1.576-0.429,1.668-1.119h-1.313V62.3h3.052
	L46.688,66.262L46.688,66.262z"/>
<rect x="48.658" y="58.997" fill="#727375" width="1.888" height="7.265"/>
<path fill="#727375" d="M57.285,61.609c-0.097-0.741-0.673-1.152-1.479-1.152c-1.211,0-1.672,1.105-1.672,2.189
	c0,1.047,0.461,2.153,1.672,2.153c0.897,0,1.398-0.536,1.479-1.348h1.888c-0.088,1.844-1.466,2.987-3.31,2.987
	c-2.19,0-3.63-1.721-3.63-3.795c0-2.105,1.439-3.803,3.63-3.803c1.556,0,3.262,1.027,3.31,2.766h-1.888V61.609z"/>
<path fill="#727375" d="M63.512,61.033h0.013l0.807,2.535h-1.658L63.512,61.033z M62.546,58.999l-2.708,7.263h1.956l0.459-1.311
	h2.537l0.439,1.311h1.978l-2.726-7.263H62.546z"/>
<polygon fill="#727375" points="68.51,58.997 68.51,66.262 73.811,66.262 73.811,64.624 70.387,64.624 70.387,58.997 "/>
<path fill="#727375" d="M81.991,64.801c1.241,0,1.714-1.109,1.714-2.154c0-1.082-0.473-2.188-1.714-2.188
	c-1.224,0-1.688,1.106-1.688,2.188C80.305,63.691,80.77,64.801,81.991,64.801 M81.991,58.844c2.305,0,3.573,1.696,3.573,3.803
	c0,2.074-1.27,3.795-3.573,3.795s-3.571-1.721-3.571-3.795C78.42,60.54,79.688,58.844,81.991,58.844"/>
<path fill="#727375" d="M89.021,62.398h1.267c0.577,0,1.03-0.254,1.03-0.904c0-0.691-0.453-0.973-1.03-0.973h-1.267V62.398z
	 M87.111,58.997h3.44c1.349,0,2.617,0.653,2.617,2.364c0,1.771-1.028,2.479-2.617,2.479h-1.53v2.422h-1.91V58.997z"/>
<polygon fill="#727375" points="94.232,58.997 94.232,60.637 96.396,60.637 96.396,66.262 98.313,66.262 98.313,60.637 
	100.465,60.637 100.465,58.997 "/>
<rect x="101.971" y="58.997" fill="#727375" width="1.916" height="7.265"/>
<path fill="#727375" d="M110.343,61.609c-0.086-0.741-0.655-1.152-1.44-1.152c-1.213,0-1.674,1.105-1.674,2.189
	c0,1.047,0.461,2.153,1.674,2.153c0.861,0,1.4-0.536,1.44-1.348h1.931c-0.09,1.844-1.473,2.987-3.315,2.987
	c-2.188,0-3.642-1.721-3.642-3.795c0-2.105,1.451-3.803,3.642-3.803c1.552,0,3.228,1.027,3.315,2.766h-1.931V61.609z"/>
<path fill="#727375" d="M115.389,63.807c0.021,0.889,0.563,1.146,1.358,1.146c0.573,0,1.171-0.218,1.171-0.729
	c0-0.652-1.04-0.769-2.094-1.074c-1.041-0.271-2.143-0.73-2.143-2.108c0-1.569,1.612-2.194,2.989-2.194
	c1.411,0,2.888,0.691,2.888,2.336h-1.879c0.034-0.638-0.604-0.839-1.188-0.839c-0.392,0-0.908,0.116-0.908,0.577
	c0,0.576,1.056,0.691,2.131,0.977c1.037,0.291,2.074,0.769,2.074,2.106c0,1.845-1.563,2.442-3.149,2.442
	c-1.689,0-3.162-0.764-3.183-2.637h1.933V63.807z"/>
<path fill="#1076BC" d="M125.102,52.275c0,0-27.428-3.271-58.979-3.271c-31.55,0-58.977,3.271-58.977,3.271h118H125.102z"/>
</svg>
